<?xml version="1.0" encoding="UTF-8" standalone="no"?>
<svg width="520px" height="160px" viewBox="0 0 520 160" version="1.1" xmlns="http://www.w3.org/2000/svg" xmlns:xlink="http://www.w3.org/1999/xlink">
    <!-- Generator: Sketch 42 (36781) - http://www.bohemiancoding.com/sketch -->
    <title>Logo</title>
    <desc>Created with Sketch.</desc>
    <defs>
        <ellipse id="path-1" cx="79.8280656" cy="79.8280656" rx="79.8280656" ry="79.8280656"></ellipse>
    </defs>
    <g id="Styles" stroke="none" stroke-width="1" fill="none" fill-rule="evenodd">
        <g id="Logo">
            <g>
                <text id="Dropify" font-family="Montserrat-Bold, Montserrat" font-size="98" font-weight="bold" letter-spacing="-6" fill="#1ED760">
                    <tspan x="177" y="115">Dropif</tspan>
                    <tspan x="452.738" y="115">y</tspan>
                </text>
                <g id="Group">
                    <mask id="mask-2" fill="white">
                        <use xlink:href="#path-1"></use>
                    </mask>
                    <use id="Icon-Shape-Copy" fill="#1ED760" xlink:href="#path-1"></use>
                    <g id="Drop" mask="url(#mask-2)">
                        <g transform="translate(60.378380, 10.252932)">
                            <path d="M19.270831,-7.10542736e-15 C28.9156261,26.1256723 38.5466328,31.821009 38.5466328,44.9486941 C37.660775,64.1616015 19.3768292,64.4570614 19.3768292,64.4570614 C19.3768292,64.4570614 2.22050565,64.4570614 0.179292286,46.8398334 C-1.44010803,35.1841073 8.1499795,27.747914 19.270831,-7.10542736e-15 Z" id="Path-2" fill="#000000"></path>
                            <path d="M19.6753493,59.2766858 C36.4295916,46.157772 24.6203906,26.2354049 27.3637445,28.7667814 C34.347424,39.3543364 33.8799143,44.6501694 33.5199086,47.3400872 C31.9115841,56.8399201 21.8773208,59.2766858 19.6753493,59.2766858 Z" id="Path-3" fill="#1ED760"></path>
                        </g>
                    </g>
                    <g id="Ripple" mask="url(#mask-2)">
                        <g transform="translate(19.366650, 85.441103)">
                            <path d="M60.3387918,48.6452275 C93.6629863,48.6452275 120.677584,37.7556224 120.677584,24.3226137 C120.677584,10.8896051 93.6629863,0 60.3387918,0 C27.0145973,0 7.10542736e-15,10.8896051 7.10542736e-15,24.3226137 C7.10542736e-15,37.7556224 27.0145973,48.6452275 60.3387918,48.6452275 Z" id="Oval-Copy-8" fill="#000000"></path>
                            <path d="M60.3387918,44.8617098 C90.7652302,44.8617098 115.430732,35.1820608 115.430732,23.2416087 C115.430732,11.3011566 90.7652302,1.62150758 60.3387918,1.62150758 C29.9123533,1.62150758 5.24685146,11.3011566 5.24685146,23.2416087 C5.24685146,35.1820608 29.9123533,44.8617098 60.3387918,44.8617098 Z" id="Oval-Copy-7" fill="#1ED760"></path>
                            <path d="M60.3387918,41.3484433 C86.4185962,41.3484433 107.560455,32.8787505 107.560455,22.4308549 C107.560455,11.9829593 86.4185962,3.51326643 60.3387918,3.51326643 C34.2589874,3.51326643 13.1171286,11.9829593 13.1171286,22.4308549 C13.1171286,32.8787505 34.2589874,41.3484433 60.3387918,41.3484433 Z" id="Oval-Copy-3" fill="#000000"></path>
                            <path d="M60.3387918,37.8351769 C82.0719621,37.8351769 99.6901777,30.5754402 99.6901777,21.6201011 C99.6901777,12.664762 82.0719621,5.40502527 60.3387918,5.40502527 C38.6056214,5.40502527 20.9874058,12.664762 20.9874058,21.6201011 C20.9874058,30.5754402 38.6056214,37.8351769 60.3387918,37.8351769 Z" id="Oval-Copy-6" fill="#1ED760"></path>
                            <path d="M60.3387918,34.5921618 C79.1742061,34.5921618 94.4433262,28.5423811 94.4433262,21.0795986 C94.4433262,13.616816 79.1742061,7.56703538 60.3387918,7.56703538 C41.5033775,7.56703538 26.2342573,13.616816 26.2342573,21.0795986 C26.2342573,28.5423811 41.5033775,34.5921618 60.3387918,34.5921618 Z" id="Oval-Copy-2" fill="#000000"></path>
                            <path d="M60.3387918,31.6193979 C74.827572,31.6193979 86.5730491,26.7795734 86.5730491,20.8093473 C86.5730491,14.8391212 74.827572,9.99929676 60.3387918,9.99929676 C45.8500115,9.99929676 34.1045345,14.8391212 34.1045345,20.8093473 C34.1045345,26.7795734 45.8500115,31.6193979 60.3387918,31.6193979 Z" id="Oval-Copy-5" fill="#1ED760"></path>
                        </g>
                    </g>
                </g>
            </g>
        </g>
    </g>
</svg>