<?xml version="1.0" encoding="UTF-8" standalone="no"?>
<svg width="520px" height="160px" viewBox="0 0 520 160" version="1.1" xmlns="http://www.w3.org/2000/svg" xmlns:xlink="http://www.w3.org/1999/xlink">
    <!-- Generator: Sketch 42 (36781) - http://www.bohemiancoding.com/sketch -->
    <title>Logo</title>
    <desc>Created with Sketch.</desc>
    <defs></defs>
    <g id="Styles-Copy" stroke="none" stroke-width="1" fill="none" fill-rule="evenodd">
        <g id="Logo">
            <g transform="translate(177.000000, 20.000000)" id="Dropify" font-size="98" font-family="Montserrat-Bold, Montserrat" letter-spacing="-6" fill="#FFFFFF" font-weight="bold">
                <text>
                    <tspan x="0" y="95">Dropif</tspan>
                    <tspan x="275.738" y="95">y</tspan>
                </text>
            </g>
            <g>
                <g id="Ripple" fill="#FFFFFF">
                    <path d="M80,160 C35.81722,160 0,124.18278 0,80 C0,35.81722 35.81722,0 80,0 C124.18278,0 160,35.81722 160,80 C160,124.18278 124.18278,160 80,160 Z M80.15625,134.375 C113.552218,134.375 140.625,123.461941 140.625,110 C140.625,96.5380592 113.552218,85.625 80.15625,85.625 C46.7602815,85.625 19.6875,96.5380592 19.6875,110 C19.6875,123.461941 46.7602815,134.375 80.15625,134.375 Z M80.15625,130.583333 C49.6642788,130.583333 24.9456522,120.882836 24.9456522,108.916667 C24.9456522,96.9504971 49.6642788,87.25 80.15625,87.25 C110.648221,87.25 135.366848,96.9504971 135.366848,108.916667 C135.366848,120.882836 110.648221,130.583333 80.15625,130.583333 Z M80.15625,127.0625 C106.292225,127.0625 127.47962,118.574565 127.47962,108.104167 C127.47962,97.6337683 106.292225,89.1458333 80.15625,89.1458333 C54.0202747,89.1458333 32.8328804,97.6337683 32.8328804,108.104167 C32.8328804,118.574565 54.0202747,127.0625 80.15625,127.0625 Z M80.15625,123.541667 C58.3762706,123.541667 40.7201087,116.266294 40.7201087,107.291667 C40.7201087,98.3170395 58.3762706,91.0416667 80.15625,91.0416667 C101.936229,91.0416667 119.592391,98.3170395 119.592391,107.291667 C119.592391,116.266294 101.936229,123.541667 80.15625,123.541667 Z M80.15625,120.291667 C99.0322322,120.291667 114.334239,114.228856 114.334239,106.75 C114.334239,99.271144 99.0322322,93.2083333 80.15625,93.2083333 C61.2802678,93.2083333 45.9782609,99.271144 45.9782609,106.75 C45.9782609,114.228856 61.2802678,120.291667 80.15625,120.291667 Z M80.15625,117.3125 C65.6362637,117.3125 53.8654891,112.462251 53.8654891,106.479167 C53.8654891,100.496082 65.6362637,95.6458333 80.15625,95.6458333 C94.6762363,95.6458333 106.447011,100.496082 106.447011,106.479167 C106.447011,112.462251 94.6762363,117.3125 80.15625,117.3125 Z M79.9373367,10.9375 C68.792533,38.7451777 59.1817902,46.1973872 60.8046784,57.8782174 C62.8502882,75.5333896 80.0435632,75.5333896 80.0435632,75.5333896 C80.0435632,75.5333896 98.3668891,75.2372933 99.2546549,55.983005 C99.2546549,42.8270453 89.6029048,37.1194421 79.9373367,10.9375 Z M80.3427262,70.3418564 C97.133054,57.194687 85.2984182,37.229411 88.0476808,39.7662395 C95.0464018,50.3765982 94.5778852,55.6838373 94.2171041,58.3795487 C92.6053156,67.8998425 82.5494404,70.3418564 80.3427262,70.3418564 Z" id="Combined-Shape"></path>
                </g>
                <g id="Drop"></g>
            </g>
        </g>
    </g>
</svg>