<?xml version="1.0" encoding="UTF-8" standalone="no"?>
<svg width="512px" height="512px" viewBox="0 0 512 512" version="1.1" xmlns="http://www.w3.org/2000/svg" xmlns:xlink="http://www.w3.org/1999/xlink">
    <!-- Generator: Sketch 42 (36781) - http://www.bohemiancoding.com/sketch -->
    <title>Round</title>
    <desc>Created with Sketch.</desc>
    <defs>
        <ellipse id="path-1" cx="256" cy="256" rx="256" ry="256"></ellipse>
    </defs>
    <g id="Styles" stroke="none" stroke-width="1" fill="none" fill-rule="evenodd">
        <g id="Round">
            <mask id="mask-2" fill="white">
                <use xlink:href="#path-1"></use>
            </mask>
            <use id="Icon-Shape-Copy" fill="#D8D8D8" xlink:href="#path-1"></use>
            <rect id="Background" fill="#1ED760" mask="url(#mask-2)" x="0" y="0" width="512" height="512"></rect>
            <g id="Ripple" mask="url(#mask-2)">
                <g transform="translate(63.000000, 274.000000)">
                    <path d="M193.5,156 C300.367099,156 387,121.07821 387,78 C387,34.9217895 300.367099,0 193.5,0 C86.6329009,0 2.84217094e-14,34.9217895 2.84217094e-14,78 C2.84217094e-14,121.07821 86.6329009,156 193.5,156 Z" id="Oval-Copy-8" fill="#000000"></path>
                    <path d="M193.5,143.866667 C291.074308,143.866667 370.173913,112.825076 370.173913,74.5333333 C370.173913,36.2415907 291.074308,5.2 193.5,5.2 C95.9256921,5.2 16.826087,36.2415907 16.826087,74.5333333 C16.826087,112.825076 95.9256921,143.866667 193.5,143.866667 Z" id="Oval-Copy-7" fill="#1ED760"></path>
                    <path d="M193.5,132.6 C277.135121,132.6 344.934783,105.438608 344.934783,71.9333333 C344.934783,38.4280585 277.135121,11.2666667 193.5,11.2666667 C109.864879,11.2666667 42.0652174,38.4280585 42.0652174,71.9333333 C42.0652174,105.438608 109.864879,132.6 193.5,132.6 Z" id="Oval-Copy-3" fill="#000000"></path>
                    <path d="M193.5,121.333333 C263.195934,121.333333 319.695652,98.0521403 319.695652,69.3333333 C319.695652,40.6145263 263.195934,17.3333333 193.5,17.3333333 C123.804066,17.3333333 67.3043478,40.6145263 67.3043478,69.3333333 C67.3043478,98.0521403 123.804066,121.333333 193.5,121.333333 Z" id="Oval-Copy-6" fill="#1ED760"></path>
                    <path d="M193.5,110.933333 C253.903143,110.933333 302.869565,91.5323392 302.869565,67.6 C302.869565,43.6676608 253.903143,24.2666667 193.5,24.2666667 C133.096857,24.2666667 84.1304348,43.6676608 84.1304348,67.6 C84.1304348,91.5323392 133.096857,110.933333 193.5,110.933333 Z" id="Oval-Copy-2" fill="#000000"></path>
                    <path d="M193.5,101.4 C239.963956,101.4 277.630435,85.8792047 277.630435,66.7333333 C277.630435,47.587462 239.963956,32.0666667 193.5,32.0666667 C147.036044,32.0666667 109.369565,47.587462 109.369565,66.7333333 C109.369565,85.8792047 147.036044,101.4 193.5,101.4 Z" id="Oval-Copy-5" fill="#1ED760"></path>
                </g>
            </g>
            <g id="Drop" mask="url(#mask-2)">
                <g transform="translate(194.000000, 35.000000)">
                    <path d="M61.7994774,-1.42108547e-14 C92.7292954,83.7822146 123.614896,102.046545 123.614896,144.145616 C120.774045,205.759339 62.1394022,206.706847 62.1394022,206.706847 C62.1394022,206.706847 7.12092222,206.706847 0.574971033,150.210296 C-4.61827121,112.831639 26.1361056,88.9845688 61.7994774,-1.42108547e-14 Z" id="Path-2" fill="#000000"></path>
                    <path d="M63.0967239,190.093941 C116.825773,148.022999 78.9549382,84.1341151 87.7525785,92.2519664 C110.148486,126.205114 108.649233,143.188279 107.494733,151.814556 C102.33701,182.279496 70.1582093,190.093941 63.0967239,190.093941 Z" id="Path-3" fill="#1ED760"></path>
                </g>
            </g>
        </g>
    </g>
</svg>